<?xml version="1.0" encoding="utf-8"?>
<!-- Generator: Adobe Illustrator 16.0.0, SVG Export Plug-In . SVG Version: 6.00 Build 0)  -->
<!DOCTYPE svg PUBLIC "-//W3C//DTD SVG 1.1//EN" "http://www.w3.org/Graphics/SVG/1.1/DTD/svg11.dtd" [
	<!ENTITY ns_extend "http://ns.adobe.com/Extensibility/1.0/">
	<!ENTITY ns_ai "http://ns.adobe.com/AdobeIllustrator/10.0/">
	<!ENTITY ns_graphs "http://ns.adobe.com/Graphs/1.0/">
	<!ENTITY ns_vars "http://ns.adobe.com/Variables/1.0/">
	<!ENTITY ns_imrep "http://ns.adobe.com/ImageReplacement/1.0/">
	<!ENTITY ns_sfw "http://ns.adobe.com/SaveForWeb/1.0/">
	<!ENTITY ns_custom "http://ns.adobe.com/GenericCustomNamespace/1.0/">
	<!ENTITY ns_adobe_xpath "http://ns.adobe.com/XPath/1.0/">
]>
<svg version="1.1" id="Capa_1" xmlns:x="&ns_extend;" xmlns:i="&ns_ai;" xmlns:graph="&ns_graphs;"
	 xmlns="http://www.w3.org/2000/svg" xmlns:xlink="http://www.w3.org/1999/xlink" x="0px" y="0px" width="216px" height="48px"
	 viewBox="0 0 216 48" enable-background="new 0 0 216 48" xml:space="preserve">
<metadata>
	<sfw  xmlns="&ns_sfw;">
		<slices></slices>
		<sliceSourceBounds  height="35" width="214.439" y="-41.5" x="0.561" bottomLeftOrigin="true"></sliceSourceBounds>
	</sfw>
</metadata>
<g>
	<path fill="#D6492F" d="M186.276,29.335c0-0.875,0.258-1.392,0.514-2.011c-0.565,0.052-1.129,0.103-1.644,0.103
		c-2.281,0-3.765-0.481-5.146-1.597v8.3v0.123c2.901-1.22,5.875-1.283,7.817-1.415C187.097,31.909,186.276,30.931,186.276,29.335z"
		/>
	<path fill="#D6492F" d="M189.56,34.335c-0.408-0.054-0.665-0.054-1.176-0.054c-0.465,0-3.237,0.104-5.395,0.827
		c-0.72,0.262-1.948,0.443-2.989,1.773V41.5h15.973c0.003-0.088,0.003-0.188,0.003-0.361
		C195.976,38.506,193.466,37.118,189.56,34.335z"/>
	<path fill="#D6492F" d="M215,15.875V6.5h-35v5.774v0.091c2.902-2.357,6.077-2.76,8.742-2.811h10.852l-2.882,2.326h-3.147
		c1.261,1.092,3.142,3.047,3.142,6.527c0,3.812-2.009,5.619-4.167,7.317c-0.667,0.669-1.437,1.393-1.437,2.527
		c0,1.132,0.77,1.75,1.334,2.215l1.85,1.44c2.259,1.907,5.21,3.661,5.209,7.218c0,0.898-0.146,1.495-0.412,2.374H215V18.609h-6.535
		v6.569h-2.79v-6.569h-6.512v-2.734h6.512V9.364h2.79v6.511H215z"/>
	<path fill="#D6492F" d="M191.196,24.089c0.963-1.104,1.341-2.556,1.341-3.299c0-3.71-2.15-9.482-6.41-9.482
		c-1.336,0-2.772,0.668-3.596,1.7c-0.873,1.083-1.008,2.471-1.008,3.814c0,3.45,1.813,8.557,6.23,8.557
		C189.036,25.379,190.352,25.053,191.196,24.089z"/>
</g>
<path fill="#517FA6" d="M95.412,19.67v-0.003c0.292,0,0.585,0.006,0.88-0.001c0.376-0.01,0.683-0.332,0.683-0.709
	c0-0.562,0-1.125,0-1.687c0-0.403-0.319-0.724-0.721-0.724c-0.561,0-1.121-0.001-1.682,0c-0.401,0-0.721,0.322-0.721,0.725
	c0,0.557-0.002,1.114,0.002,1.671c0,0.084,0.016,0.169,0.042,0.249c0.102,0.296,0.373,0.479,0.706,0.48
	C94.871,19.671,95.142,19.67,95.412,19.67z M90.003,20.393c-1.974-0.001-3.578,1.588-3.606,3.552
	c-0.028,2.018,1.587,3.617,3.523,3.658c2.016,0.043,3.645-1.565,3.688-3.524C93.651,22.061,92.022,20.392,90.003,20.393z
	 M83.03,22.318v0.048c0,2.633,0,5.268,0,7.901c0,0.379,0.328,0.705,0.707,0.705c4.177,0.001,8.353,0.001,12.529,0
	c0.382,0,0.709-0.326,0.709-0.707c0-2.631,0-5.262,0-7.892v-0.055h-1.699c0.24,0.767,0.313,1.547,0.219,2.342
	c-0.094,0.795-0.351,1.536-0.768,2.218c-0.417,0.685-0.958,1.252-1.621,1.702c-1.717,1.171-3.978,1.273-5.801,0.25
	c-0.921-0.517-1.645-1.237-2.149-2.165c-0.752-1.386-0.873-2.838-0.431-4.347C84.16,22.318,83.599,22.318,83.03,22.318z
	 M97.123,32.898c0.092-0.015,0.186-0.028,0.276-0.049c0.727-0.153,1.32-0.76,1.463-1.491c0.015-0.079,0.026-0.16,0.039-0.237V16.88
	c-0.012-0.078-0.023-0.157-0.038-0.233c-0.156-0.797-0.813-1.417-1.621-1.527c-0.034-0.004-0.066-0.012-0.099-0.018H82.864
	c-0.086,0.015-0.172,0.028-0.257,0.047c-0.789,0.18-1.373,0.814-1.484,1.614c-0.005,0.034-0.012,0.066-0.017,0.1v14.279
	c0.016,0.091,0.028,0.182,0.049,0.272c0.174,0.771,0.832,1.369,1.616,1.469c0.037,0.006,0.076,0.013,0.113,0.018L97.123,32.898
	L97.123,32.898z M72.336,6.5h35v35h-35V6.5z"/>
<g>
	<polygon fill="none" points="156.752,21.232 158.042,21.232 158.042,18.023 159.544,13.5 158.231,13.5 157.435,16.59 
		157.354,16.59 156.516,13.5 155.215,13.5 156.752,18.168 	"/>
	<path fill="#CF3427" d="M160.42,31.438c-0.098,0.113-0.201,0.204-0.316,0.277c-0.114,0.073-0.209,0.109-0.285,0.109
		c-0.094,0-0.163-0.026-0.208-0.082c-0.041-0.055-0.062-0.143-0.062-0.266v-3.973h-1.018v4.329c0,0.31,0.062,0.539,0.179,0.693
		c0.121,0.155,0.296,0.231,0.532,0.231c0.191,0,0.388-0.054,0.591-0.165c0.205-0.108,0.399-0.269,0.589-0.479v0.569h1.017v-5.179
		h-1.018V31.438z"/>
	<polygon fill="#CF3427" points="154.562,26.684 155.749,26.684 155.749,32.683 156.896,32.683 156.896,26.684 158.083,26.684 
		158.083,25.663 154.562,25.663 	"/>
	<path fill="#CF3427" d="M161.289,20.388c0.156,0,0.278-0.043,0.371-0.13c0.091-0.088,0.137-0.209,0.137-0.361V16.79
		c0-0.125-0.047-0.226-0.141-0.303s-0.216-0.115-0.367-0.115c-0.14,0-0.253,0.038-0.342,0.115c-0.086,0.077-0.131,0.178-0.131,0.303
		v3.107c0,0.156,0.042,0.276,0.123,0.363C161.021,20.345,161.138,20.388,161.289,20.388z"/>
	<path fill="#CF3427" d="M144.112,6.5v35h35v-35H144.112z M163.895,15.526h1.145V19.9c0,0.135,0.026,0.233,0.074,0.293
		c0.046,0.061,0.126,0.091,0.232,0.091c0.083,0,0.19-0.04,0.319-0.121c0.129-0.08,0.247-0.182,0.354-0.307v-4.33h1.146v5.706h-1.146
		v-0.63c-0.21,0.231-0.43,0.41-0.66,0.53c-0.229,0.122-0.45,0.182-0.665,0.182c-0.267,0-0.465-0.085-0.599-0.256
		c-0.134-0.169-0.201-0.424-0.201-0.765V15.526z M159.637,16.833c0-0.443,0.154-0.795,0.464-1.056
		c0.308-0.262,0.724-0.394,1.243-0.394c0.475,0,0.863,0.138,1.168,0.416c0.302,0.276,0.453,0.632,0.453,1.066v2.947
		c0,0.488-0.149,0.869-0.444,1.148c-0.3,0.278-0.708,0.417-1.229,0.417c-0.5,0-0.902-0.144-1.203-0.429
		c-0.3-0.287-0.451-0.672-0.451-1.157V16.833z M156.516,13.5l0.838,3.09h0.081l0.797-3.09h1.312l-1.502,4.523v3.208h-1.29v-3.063
		l-1.537-4.668H156.516z M169.492,34.231c-0.837,0.834-7.883,0.852-7.883,0.852s-7.047-0.018-7.885-0.853
		c-0.839-0.837-0.841-4.959-0.841-4.99c0-0.024,0.003-4.154,0.841-4.991c0.839-0.835,7.885-0.846,7.885-0.845
		c0-0.001,7.046,0.011,7.883,0.846c0.839,0.836,0.849,4.965,0.849,4.99C170.341,29.24,170.334,33.392,169.492,34.231z"/>
	<path fill="#CF3427" d="M167.213,27.376c-0.456,0-0.827,0.143-1.115,0.425c-0.287,0.282-0.433,0.649-0.433,1.098v2.325
		c0,0.5,0.133,0.892,0.395,1.175c0.262,0.285,0.621,0.426,1.077,0.426c0.507,0,0.889-0.133,1.143-0.4
		c0.257-0.27,0.383-0.67,0.383-1.201v-0.266h-1.047v0.236c0,0.305-0.035,0.502-0.102,0.591c-0.067,0.089-0.186,0.134-0.354,0.134
		c-0.162,0-0.275-0.052-0.345-0.157c-0.066-0.106-0.099-0.295-0.099-0.568v-0.974v-0.002v0.002h1.946v-1.32
		c0-0.491-0.124-0.867-0.374-1.129C168.037,27.508,167.679,27.376,167.213,27.376z M167.615,29.41h-0.9v-0.521
		c0-0.218,0.034-0.374,0.104-0.465c0.071-0.097,0.188-0.143,0.351-0.143c0.154,0,0.269,0.046,0.337,0.143
		c0.072,0.092,0.108,0.248,0.108,0.465V29.41z"/>
	<path fill="#CF3427" d="M164.139,27.44c-0.157,0-0.313,0.041-0.47,0.123c-0.152,0.082-0.298,0.203-0.437,0.36v-2.261h-1.029v7.02
		h1.029v-0.397c0.133,0.159,0.279,0.275,0.436,0.351c0.155,0.075,0.332,0.112,0.532,0.112c0.302,0,0.534-0.097,0.692-0.293
		c0.159-0.195,0.239-0.477,0.239-0.843v-2.873c0-0.424-0.083-0.748-0.256-0.969C164.708,27.551,164.462,27.44,164.139,27.44z
		 M164.085,31.47c0,0.167-0.031,0.284-0.09,0.356c-0.059,0.074-0.149,0.11-0.273,0.11c-0.087,0-0.168-0.02-0.246-0.057
		c-0.079-0.036-0.16-0.099-0.242-0.183v-3.226c0.069-0.071,0.139-0.125,0.21-0.158c0.07-0.035,0.143-0.05,0.216-0.05
		c0.137,0,0.243,0.045,0.317,0.134c0.071,0.091,0.108,0.224,0.108,0.399V31.47z"/>
</g>
<path fill="#598DCA" d="M56.379,17.165c-1.528,0.556-2.493,1.99-2.383,3.559l0.037,0.606l-0.611-0.074
	c-2.224-0.284-4.168-1.248-5.818-2.867l-0.807-0.803l-0.208,0.593c-0.44,1.323-0.159,2.719,0.758,3.658
	c0.489,0.519,0.378,0.593-0.464,0.284c-0.293-0.099-0.55-0.173-0.575-0.136c-0.085,0.087,0.208,1.211,0.44,1.656
	c0.318,0.618,0.965,1.224,1.675,1.582l0.599,0.284l-0.709,0.012c-0.684,0-0.708,0.013-0.635,0.272
	c0.245,0.803,1.21,1.656,2.286,2.027l0.757,0.259l-0.659,0.396c-0.978,0.568-2.127,0.889-3.276,0.914
	c-0.551,0.013-1.002,0.062-1.002,0.1c0,0.123,1.492,0.814,2.359,1.086c2.604,0.804,5.696,0.458,8.019-0.913
	c1.65-0.977,3.3-2.917,4.07-4.795c0.416-1.001,0.832-2.83,0.832-3.707c0-0.569,0.036-0.643,0.721-1.322
	c0.403-0.396,0.781-0.828,0.855-0.952c0.122-0.235,0.109-0.235-0.514-0.025c-1.039,0.372-1.186,0.322-0.672-0.234
	c0.379-0.396,0.831-1.113,0.831-1.323c0-0.036-0.183,0.025-0.391,0.136c-0.221,0.124-0.71,0.309-1.076,0.42l-0.66,0.21l-0.599-0.408
	c-0.33-0.222-0.794-0.47-1.039-0.544C57.895,16.943,56.941,16.967,56.379,17.165z M36.448,6.5h35v35h-35V6.5z"/>
<path fill="#3A589B" d="M15.59,33.52h3.934v-9.521h2.624l0.348-3.281h-2.972l0.004-1.643c0-0.855,0.082-1.314,1.309-1.314h1.641
	V14.48h-2.625c-3.153,0-4.262,1.592-4.262,4.268v1.97h-1.965V24h1.965V33.52z M0.561,6.5h35v35h-35V6.5z"/>
<path fill="#D01D15" d="M108.225,6.5v35h35v-35H108.225z M127.236,28.361c-1.215,0-2.357-0.656-2.748-1.402
	c0,0-0.652,2.594-0.791,3.094c-0.486,1.768-1.922,3.537-2.031,3.682c-0.078,0.102-0.25,0.07-0.268-0.066
	c-0.031-0.225-0.396-2.455,0.033-4.273c0.215-0.914,1.447-6.131,1.447-6.131s-0.359-0.718-0.359-1.78
	c0-1.667,0.967-2.911,2.17-2.911c1.023,0,1.518,0.767,1.518,1.688c0,1.029-0.654,2.568-0.992,3.993
	c-0.281,1.194,0.598,2.167,1.773,2.167c2.133,0,3.568-2.739,3.568-5.983c0-2.464-1.66-4.311-4.682-4.311
	c-3.412,0-5.539,2.545-5.539,5.389c0,0.98,0.289,1.672,0.742,2.206c0.209,0.246,0.238,0.345,0.162,0.626
	c-0.053,0.207-0.176,0.708-0.229,0.905c-0.076,0.283-0.307,0.385-0.564,0.279c-1.57-0.639-2.303-2.361-2.303-4.296
	c0-3.197,2.695-7.029,8.041-7.029c4.295,0,7.121,3.108,7.121,6.445C133.307,25.064,130.854,28.361,127.236,28.361z"/>
</svg>
