<?xml version="1.0" encoding="utf-8"?>
<!-- Generator: Adobe Illustrator 16.0.0, SVG Export Plug-In . SVG Version: 6.00 Build 0)  -->
<!DOCTYPE svg PUBLIC "-//W3C//DTD SVG 1.1//EN" "http://www.w3.org/Graphics/SVG/1.1/DTD/svg11.dtd" [
	<!ENTITY ns_extend "http://ns.adobe.com/Extensibility/1.0/">
	<!ENTITY ns_ai "http://ns.adobe.com/AdobeIllustrator/10.0/">
	<!ENTITY ns_graphs "http://ns.adobe.com/Graphs/1.0/">
	<!ENTITY ns_vars "http://ns.adobe.com/Variables/1.0/">
	<!ENTITY ns_imrep "http://ns.adobe.com/ImageReplacement/1.0/">
	<!ENTITY ns_sfw "http://ns.adobe.com/SaveForWeb/1.0/">
	<!ENTITY ns_custom "http://ns.adobe.com/GenericCustomNamespace/1.0/">
	<!ENTITY ns_adobe_xpath "http://ns.adobe.com/XPath/1.0/">
]>
<svg version="1.1" id="Capa_1" xmlns:x="&ns_extend;" xmlns:i="&ns_ai;" xmlns:graph="&ns_graphs;"
	 xmlns="http://www.w3.org/2000/svg" xmlns:xlink="http://www.w3.org/1999/xlink" x="0px" y="0px" width="35px" height="35px"
	 viewBox="0 0 35 35" enable-background="new 0 0 35 35" xml:space="preserve">
<metadata>
	<sfw  xmlns="&ns_sfw;">
		<slices></slices>
		<sliceSourceBounds  bottomLeftOrigin="true" width="31.365" height="27.249" y="3.572" x="1.459"></sliceSourceBounds>
	</sfw>
</metadata>
<path fill="#666666" d="M10.956,22.482h16.953c0.356,0,0.675-0.229,0.786-0.567l4.087-12.432c0.083-0.252,0.04-0.529-0.116-0.744
	c-0.154-0.215-0.404-0.342-0.67-0.342L6.923,8.411C6.771,7.9,6.65,7.502,6.574,7.266C5.8,4.864,3.015,4.196,1.491,4.179L1.459,6.628
	c0.023,0,2.362,0.081,2.784,1.389c0.634,1.966,4.465,15.517,5.169,18.012c-0.408,0.562-0.656,1.246-0.656,1.992
	c0,1.879,1.529,3.406,3.408,3.406s3.408-1.527,3.408-3.406c0-0.334-0.063-0.651-0.154-0.957h7.466
	c-0.09,0.306-0.153,0.623-0.153,0.957c0,1.879,1.528,3.406,3.408,3.406c1.879,0,3.408-1.527,3.408-3.406
	c0-1.855-1.492-3.363-3.34-3.401v-0.005h-0.05c-0.007,0-0.013-0.002-0.021-0.002c-0.007,0-0.013,0.002-0.02,0.002H12.185
	c-0.007,0-0.013-0.002-0.02-0.002s-0.013,0.002-0.02,0.002h-0.586C11.401,24.059,11.196,23.331,10.956,22.482z M28.736,16.488
	h-3.674l0.639-2.465h3.846L28.736,16.488z M23.354,16.488h-3.73v-2.465h4.37L23.354,16.488z M19.622,20.829v-2.687h3.303
	l-0.696,2.687H19.622z M15.121,20.829l-0.696-2.687h3.542v2.687H15.121z M19.622,12.368v-2.309l5.397-0.003l-0.599,2.312H19.622z
	 M17.967,12.368h-5.039l-0.598-2.305l5.637-0.003V12.368z M17.967,14.023v2.465h-3.971l-0.639-2.465H17.967z M12.287,16.488H9.253
	c-0.237-0.83-0.474-1.659-0.704-2.465h3.099L12.287,16.488z M9.724,18.145h2.992l0.696,2.686h-2.925
	C10.247,19.982,9.989,19.075,9.724,18.145z M27.311,20.829h-3.373l0.696-2.687h3.56L27.311,20.829z M30.091,12.368h-3.96l0.6-2.313
	l4.121-0.002L30.091,12.368z M10.622,10.064l0.597,2.304H8.074c-0.24-0.833-0.463-1.608-0.666-2.303L10.622,10.064z M13.124,28.021
	c0,0.527-0.43,0.957-0.959,0.957c-0.529,0-0.959-0.43-0.959-0.957c0-0.525,0.425-0.951,0.949-0.957h0.02
	C12.699,27.07,13.124,27.496,13.124,28.021z M27.1,28.021c0,0.527-0.431,0.957-0.959,0.957c-0.529,0-0.959-0.43-0.959-0.957
	c0-0.525,0.426-0.951,0.948-0.957h0.021C26.674,27.07,27.1,27.496,27.1,28.021z"/>
</svg>
