<?xml version="1.0" encoding="utf-8"?>
<!-- Generator: Adobe Illustrator 16.0.0, SVG Export Plug-In . SVG Version: 6.00 Build 0)  -->
<!DOCTYPE svg PUBLIC "-//W3C//DTD SVG 1.1//EN" "http://www.w3.org/Graphics/SVG/1.1/DTD/svg11.dtd" [
	<!ENTITY ns_extend "http://ns.adobe.com/Extensibility/1.0/">
	<!ENTITY ns_ai "http://ns.adobe.com/AdobeIllustrator/10.0/">
	<!ENTITY ns_graphs "http://ns.adobe.com/Graphs/1.0/">
	<!ENTITY ns_vars "http://ns.adobe.com/Variables/1.0/">
	<!ENTITY ns_imrep "http://ns.adobe.com/ImageReplacement/1.0/">
	<!ENTITY ns_sfw "http://ns.adobe.com/SaveForWeb/1.0/">
	<!ENTITY ns_custom "http://ns.adobe.com/GenericCustomNamespace/1.0/">
	<!ENTITY ns_adobe_xpath "http://ns.adobe.com/XPath/1.0/">
]>
<svg version="1.1" id="Capa_1" xmlns:x="&ns_extend;" xmlns:i="&ns_ai;" xmlns:graph="&ns_graphs;"
	 xmlns="http://www.w3.org/2000/svg" xmlns:xlink="http://www.w3.org/1999/xlink" x="0px" y="0px" width="24px" height="24px"
	 viewBox="0 0 24 24" enable-background="new 0 0 24 24" xml:space="preserve">
<metadata>
	<sfw  xmlns="&ns_sfw;">
		<slices></slices>
		<sliceSourceBounds  bottomLeftOrigin="true" width="18.002" height="18" y="-20.484" x="3.529"></sliceSourceBounds>
	</sfw>
</metadata>
<path fill="#EF5F37" d="M14.999,11.484l6.02-6.018c0.683-0.682,0.683-1.788,0-2.47s-1.788-0.682-2.47,0l-6.02,6.018L6.511,2.996
	c-0.682-0.682-1.789-0.682-2.47,0c-0.682,0.682-0.682,1.788,0,2.47l6.018,6.018l-6.019,6.019c-0.682,0.682-0.682,1.787,0,2.47
	c0.341,0.341,0.788,0.512,1.235,0.512c0.447,0,0.894-0.171,1.235-0.512l6.019-6.019l6.019,6.019
	c0.341,0.341,0.788,0.512,1.234,0.512c0.447,0,0.895-0.171,1.235-0.512c0.683-0.683,0.683-1.788,0-2.47L14.999,11.484z"/>
</svg>
