<?xml version="1.0" encoding="utf-8"?>
<!-- Generator: Adobe Illustrator 16.0.0, SVG Export Plug-In . SVG Version: 6.00 Build 0)  -->
<!DOCTYPE svg PUBLIC "-//W3C//DTD SVG 1.1//EN" "http://www.w3.org/Graphics/SVG/1.1/DTD/svg11.dtd">
<svg version="1.1" id="Capa_1" xmlns="http://www.w3.org/2000/svg" xmlns:xlink="http://www.w3.org/1999/xlink" x="0px" y="0px"
	 width="112.524px" height="30px" viewBox="0 0 112.524 30" enable-background="new 0 0 112.524 30" xml:space="preserve">
<g id="layer1" transform="translate(0,-552.36218)">
	<path id="rect2995" fill="#686868" d="M32.33,555.29c-1.337,0-2.414,1.077-2.414,2.415v19.315c0,1.338,1.077,2.414,2.414,2.414
		h19.315c1.337,0,2.414-1.076,2.414-2.414v-19.315c0-1.337-1.077-2.415-2.414-2.415H32.33z M45.757,559.215
		c0.035-0.001,0.071,0,0.106,0c1.175,0,2.237,0.497,2.982,1.291c0.93-0.184,1.807-0.524,2.595-0.993
		c-0.305,0.955-0.952,1.755-1.797,2.26c0.826-0.098,1.615-0.317,2.346-0.642c-0.547,0.819-1.24,1.539-2.038,2.114
		c0.007,0.176,0.013,0.353,0.013,0.529c0,5.399-4.109,11.625-11.625,11.625c-2.308,0-4.454-0.677-6.263-1.836
		c0.32,0.038,0.646,0.058,0.975,0.058c1.915,0,3.675-0.653,5.074-1.749c-1.788-0.033-3.296-1.216-3.816-2.838
		c0.249,0.048,0.506,0.073,0.769,0.073c0.373,0,0.733-0.05,1.077-0.144c-1.87-0.375-3.278-2.025-3.278-4.005
		c0-0.017,0-0.035,0-0.053c0.552,0.307,1.182,0.49,1.852,0.512c-1.097-0.732-1.818-1.982-1.818-3.399
		c0-0.75,0.202-1.452,0.554-2.056c2.015,2.472,5.026,4.098,8.422,4.27c-0.07-0.3-0.106-0.612-0.106-0.932
		C41.778,561.078,43.55,559.271,45.757,559.215z"/>
</g>
<path id="rect2986" fill="#686868" d="M4.479,2.793c-1.353,0-2.441,1.089-2.441,2.441v19.531c0,1.352,1.089,2.441,2.441,2.441
	h19.531c1.353,0,2.441-1.09,2.441-2.441V5.234c0-1.353-1.089-2.441-2.441-2.441H4.479z M16.093,7.189h2.39v2.737H17.05
	c-1.141,0-1.303,0.373-1.303,1.108v1.628h2.736l-0.325,2.737h-2.411v8.209h-3.549v-8.209h-1.924v-2.737h1.924v-1.825
	C12.198,8.532,13.165,7.189,16.093,7.189z"/>
<g id="layer1_1_" transform="translate(0,-552.36218)">
	<path id="rect2995_1_" fill="#686868" d="M60.111,555.29c-1.332,0-2.405,1.073-2.405,2.405v19.241c0,1.332,1.073,2.405,2.405,2.405
		h19.242c1.332,0,2.404-1.073,2.404-2.405v-19.241c0-1.333-1.072-2.405-2.404-2.405H60.111z M67.363,557.833h5.044l-1.559,0.917
		H69.29c0.541,0.344,0.985,0.803,1.282,1.422c0.3,0.619,0.415,1.3,0.415,1.972c0,0.565-0.056,1.07-0.229,1.514
		c-0.176,0.437-0.39,0.787-0.643,1.056c-0.252,0.267-0.527,0.503-0.78,0.733c-0.252,0.222-0.465,0.443-0.642,0.687
		c-0.176,0.238-0.275,0.506-0.275,0.782c0,0.198,0.06,0.404,0.184,0.596c0.13,0.19,0.306,0.374,0.504,0.55
		c0.206,0.176,0.444,0.36,0.688,0.551c0.245,0.19,0.49,0.405,0.733,0.642c0.245,0.229,0.444,0.46,0.644,0.733
		c0.206,0.268,0.382,0.582,0.504,0.965c0.131,0.374,0.183,0.801,0.185,1.237c-0.002,1.225-0.538,2.277-1.606,3.211
		c-1.163,1-2.769,1.513-4.817,1.513c-0.45,0-0.909-0.016-1.375-0.091c-0.458-0.078-0.901-0.229-1.375-0.414
		c-0.467-0.176-0.879-0.375-1.239-0.642c-0.36-0.26-0.688-0.635-0.917-1.055c-0.229-0.412-0.322-0.863-0.322-1.378
		c0-0.464,0.13-0.992,0.414-1.557c0.244-0.489,0.61-0.888,1.099-1.24c0.49-0.359,1.032-0.64,1.651-0.823
		c0.619-0.191,1.222-0.331,1.789-0.416c0.565-0.09,1.163-0.12,1.742-0.134c-0.488-0.636-0.733-1.239-0.733-1.744
		c0-0.091-0.015-0.146,0-0.23c0.016-0.092,0.069-0.169,0.092-0.229c0.023-0.062,0.053-0.177,0.092-0.276
		c0.038-0.107,0.03-0.167,0.045-0.229c-0.307,0.038-0.549,0.045-0.779,0.045c-1.138,0-2.118-0.351-2.935-1.1
		c-0.81-0.75-1.239-1.712-1.239-2.843c0-1.071,0.374-2.003,1.101-2.844c0.726-0.849,1.597-1.415,2.66-1.652
		C65.926,557.909,66.652,557.834,67.363,557.833z M65.805,558.659c-0.711,0-1.262,0.253-1.652,0.781
		c-0.391,0.527-0.597,1.191-0.597,1.925c0,0.359,0.054,0.705,0.139,1.102c0.091,0.397,0.229,0.794,0.413,1.191
		c0.184,0.398,0.397,0.779,0.642,1.101c0.244,0.312,0.565,0.582,0.917,0.78c0.351,0.198,0.711,0.274,1.101,0.274
		c0.741,0,1.276-0.229,1.604-0.687c0.337-0.467,0.505-1.07,0.505-1.835c0-0.459-0.053-0.957-0.184-1.469
		c-0.122-0.521-0.313-1.031-0.552-1.512c-0.229-0.482-0.549-0.88-0.961-1.193C66.775,558.804,66.308,558.659,65.805,558.659z
		 M74.885,562.236h1.468v2.936h2.936v1.468h-2.936v2.936h-1.468v-2.936h-2.936v-1.468h2.936V562.236z M67.341,569.844
		c-0.102,0.002-0.219,0.008-0.345,0.008c-0.413,0-0.795-0.01-1.191,0.046c-0.398,0.053-0.812,0.184-1.239,0.321
		c-0.428,0.136-0.826,0.288-1.147,0.504c-0.321,0.213-0.573,0.51-0.779,0.869c-0.207,0.36-0.321,0.781-0.321,1.241
		c0,0.52,0.145,0.969,0.412,1.374c0.275,0.412,0.62,0.734,1.055,0.963c0.443,0.238,0.894,0.391,1.375,0.506
		c0.482,0.113,0.98,0.183,1.468,0.183c0.451,0,0.879-0.038,1.284-0.137c0.412-0.093,0.834-0.253,1.192-0.46
		c0.359-0.198,0.619-0.466,0.827-0.825c0.214-0.357,0.32-0.803,0.32-1.284c0-0.161-0.008-0.312-0.047-0.458
		c-0.029-0.152-0.053-0.292-0.091-0.413c-0.038-0.131-0.131-0.23-0.229-0.367c-0.092-0.138-0.161-0.276-0.229-0.366
		c-0.062-0.1-0.186-0.191-0.322-0.322c-0.138-0.131-0.245-0.259-0.321-0.32c-0.069-0.068-0.19-0.146-0.367-0.275
		c-0.169-0.13-0.298-0.229-0.367-0.276c-0.061-0.045-0.175-0.144-0.366-0.273c-0.184-0.13-0.275-0.199-0.321-0.229
		C67.526,569.844,67.442,569.842,67.341,569.844z"/>
</g>
<g id="layer1_2_" transform="translate(0,-552.36218)">
	<path id="rect2995_2_" fill="#686868" d="M87.656,555.29c-1.36,0-2.455,1.095-2.455,2.455v19.64c0,1.36,1.095,2.455,2.455,2.455
		h19.64c1.36,0,2.455-1.095,2.455-2.455v-19.64c0-1.36-1.095-2.455-2.455-2.455H87.656z M97.946,557.935
		c4.267,0,7.075,3.088,7.075,6.403c0,4.383-2.438,7.658-6.03,7.658c-1.207,0-2.342-0.65-2.73-1.392c0,0-0.648,2.574-0.785,3.07
		c-0.483,1.756-1.908,3.514-2.018,3.658c-0.077,0.101-0.25,0.069-0.268-0.064c-0.03-0.224-0.393-2.439,0.033-4.247
		c0.215-0.907,1.438-6.089,1.438-6.089s-0.355-0.714-0.355-1.769c0-1.656,0.958-2.893,2.154-2.893c1.016,0,1.508,0.762,1.508,1.677
		c0,1.023-0.65,2.55-0.986,3.966c-0.279,1.186,0.595,2.152,1.765,2.152c2.116,0,3.542-2.719,3.542-5.942
		c0-2.449-1.648-4.282-4.65-4.282c-3.39,0-5.503,2.527-5.503,5.352c0,0.974,0.289,1.663,0.738,2.193
		c0.207,0.245,0.236,0.343,0.162,0.623c-0.055,0.207-0.178,0.701-0.229,0.896c-0.073,0.283-0.304,0.385-0.56,0.279
		c-1.561-0.637-2.288-2.347-2.288-4.269C89.959,561.742,92.636,557.935,97.946,557.935z"/>
</g>
</svg>
